# Blender 5.1.0
# www.blender.org
mtllib cube.mtl
o Cube
v -2.816407 1.850283 0.488326
v -2.816407 0.332823 0.488326
v -2.816407 1.850283 2.005785
v -2.816407 0.332823 2.005785
v -4.333866 1.850283 0.488326
v -4.333866 0.332823 0.488326
v -4.333866 1.850283 2.005785
v -4.333866 0.332823 2.005785
vn -0.0000 1.0000 -0.0000
vn -0.0000 -0.0000 1.0000
vn -1.0000 -0.0000 -0.0000
vn -0.0000 -1.0000 -0.0000
vn 1.0000 -0.0000 -0.0000
vn -0.0000 -0.0000 -1.0000
s 0
usemtl Cube
f 5//1 3//1 1//1
f 3//2 8//2 4//2
f 7//3 6//3 8//3
f 2//4 8//4 6//4
f 1//5 4//5 2//5
f 5//6 2//6 6//6
f 5//1 7//1 3//1
f 3//2 7//2 8//2
f 7//3 5//3 6//3
f 2//4 4//4 8//4
f 1//5 3//5 4//5
f 5//6 1//6 2//6
o Ground
v 5.816067 0.229599 -5.816067
v 5.816067 -0.229599 -5.816067
v 5.816067 0.229599 5.816067
v 5.816067 -0.229599 5.816067
v -5.402603 0.164310 -5.402603
v -5.816067 -0.229599 -5.816067
v -5.816067 0.229599 5.816067
v -5.816067 -0.229599 5.816067
v -5.816067 -0.229599 0.000000
v 0.000000 -0.229599 -5.816067
v 5.816067 0.000000 -5.816067
v -5.816067 0.000000 5.816067
v 5.816067 0.000000 5.816067
v -5.816067 0.000000 -5.816067
v 0.000000 0.229599 5.816067
v 5.816067 0.229599 0.000000
v 0.000000 -0.229599 5.816067
v -5.816067 0.229599 0.000000
v 0.000000 0.229599 -5.816067
v 5.816067 -0.229599 0.000000
v 0.000000 0.000000 -5.816067
v 5.816067 0.000000 0.000000
v 0.000000 -0.229599 0.000000
v -5.816067 0.000000 0.000000
v 0.000000 0.000000 5.816067
v 0.000000 0.025130 -0.012044
v -2.908034 0.229599 5.441980
v 5.816067 0.229599 2.908034
v -5.816067 0.229599 -2.908034
v 2.908034 0.456759 -5.816067
v 2.908034 0.229599 5.816067
v 5.816067 0.219722 -2.908034
v -5.441980 0.229599 2.908034
v -2.908034 0.229599 -5.816067
v 0.000000 0.343105 2.895990
v 0.000000 0.229599 -2.908034
v 2.908034 0.229599 0.000000
v -2.908034 0.229599 0.000000
v -2.908034 0.229599 -2.908034
v 2.908034 0.219722 -2.908034
v 2.908034 0.229599 2.908034
v -2.908034 0.229599 2.908034
v -4.362051 0.229599 5.441980
v 5.816067 0.229599 4.362051
v -5.816067 0.229599 -4.362051
v 4.362051 0.229599 -5.816067
v 1.454017 0.229599 5.816067
v 5.816067 0.101204 -1.454017
v -5.441980 0.229599 1.454017
v -1.454017 0.229599 -5.816067
v 0.000000 0.502093 4.350007
v 0.000000 0.229599 -1.454017
v 4.362051 0.229599 0.000000
v -1.454017 0.229599 0.000000
v -1.454017 0.229599 5.816067
v 5.816067 0.229599 1.454017
v -5.816067 0.229599 -1.454017
v 1.454017 0.229599 -5.816067
v 4.362051 0.229599 5.816067
v 5.816067 0.338240 -4.362051
v -5.441980 0.229599 4.362051
v -4.362051 0.229599 -5.402603
v 0.000000 0.184118 1.441973
v 0.000000 0.229599 -4.362051
v 1.454017 0.025260 0.016058
v -4.362051 0.229599 0.000000
v -2.908034 0.229599 -1.454017
v -2.908034 0.229599 -4.362051
v -1.454017 0.229599 -2.908034
v -4.362051 0.229599 -2.908034
v 2.908034 0.101204 -1.454017
v 2.908034 0.338240 -4.362051
v 4.362051 0.219722 -2.908034
v 1.454017 0.229599 -2.908034
v 2.908034 0.229599 4.362051
v 2.908034 0.229599 1.454017
v 4.362051 0.229599 2.908034
v 1.454017 0.343236 2.924092
v -2.908034 0.229599 4.362051
v -2.908034 0.229599 1.454017
v -1.454017 0.229599 2.908034
v -4.362051 0.229599 2.908034
v -4.362051 0.229599 1.454017
v -1.454017 0.229599 1.454017
v -1.454017 0.229599 4.362051
v 1.454017 0.184248 1.470075
v 4.362051 0.229599 1.454017
v 4.362051 0.229599 4.362051
v 1.454017 0.229599 -4.362051
v 4.362051 0.338240 -4.362051
v 4.362051 0.101204 -1.454017
v -4.362051 0.229599 -4.362051
v -1.454017 0.229599 -4.362051
v -1.454017 0.229599 -1.454017
v -4.362051 0.229599 -1.454017
v 1.454017 0.229599 -1.454017
v 1.454017 0.229599 4.362051
v -4.362051 0.229599 4.362051
v -5.816067 -0.229599 2.908034
v -2.908034 -0.229599 -5.816067
v 2.908034 -0.229599 5.816067
v 5.816067 -0.239475 -2.908034
v -5.816067 -0.229599 -2.908034
v 2.908034 -0.229599 -5.816067
v -2.908034 -0.229599 5.816067
v 5.816067 -0.229599 2.908034
v 0.000000 -0.229599 2.908034
v 0.000000 -0.229599 -2.908034
v -2.908034 -0.229599 0.000000
v 2.908034 -0.229599 0.000000
v 2.908034 -0.229599 -2.908034
v -2.908034 -0.229599 -2.908034
v -2.908034 -0.229599 2.908034
v 2.908034 -0.229599 2.908034
v -5.816067 -0.229599 4.362051
v -4.362051 -0.229599 -5.816067
v 4.362051 -0.229599 5.816067
v 5.816067 -0.229599 -4.362051
v -5.816067 -0.229599 -1.454017
v 1.454017 -0.229599 -5.816067
v -1.454017 -0.229599 5.816067
v 5.816067 -0.229599 1.454017
v 0.000000 -0.229599 4.362051
v 0.000000 -0.229599 -1.454017
v -4.362051 -0.229599 0.000000
v 1.454017 -0.229599 0.000000
v -5.816067 -0.229599 1.454017
v -1.454017 -0.229599 -5.816067
v 1.454017 -0.229599 5.816067
v 5.816067 -0.357993 -1.454017
v -5.816067 -0.229599 -4.362051
v 4.362051 -0.229599 -5.816067
v -4.362051 -0.229599 5.816067
v 5.816067 -0.229599 4.362051
v 0.000000 -0.229599 1.454017
v 0.000000 -0.229599 -4.362051
v -1.454017 -0.229599 0.000000
v 4.362051 -0.229599 0.000000
v 2.908034 -0.229599 -1.454017
v 2.908034 -0.229599 -4.362051
v 1.454017 -0.229599 -2.908034
v 4.362051 -0.229599 -2.908034
v -2.908034 -0.229599 -1.454017
v -2.908034 -0.229599 -4.362051
v -4.362051 -0.229599 -2.908034
v -1.454017 -0.229599 -2.908034
v -2.908034 -0.229599 4.362051
v -2.908034 -0.229599 1.454017
v -4.362051 -0.229599 2.908034
v -1.454017 -0.229599 2.908034
v 2.908034 -0.229599 4.362051
v 2.908034 -0.229599 1.454017
v 1.454017 -0.229599 2.908034
v 4.362051 -0.229599 2.908034
v 4.362051 -0.229599 1.454017
v 1.454017 -0.229599 1.454017
v 1.454017 -0.229599 4.362051
v -1.454017 -0.229599 1.454017
v -4.362051 -0.229599 1.454017
v -4.362051 -0.229599 4.362051
v -1.454017 -0.229599 -4.362051
v -4.362051 -0.229599 -4.362051
v -4.362051 -0.229599 -1.454017
v 4.362051 -0.229599 -4.362051
v 1.454017 -0.229599 -4.362051
v 1.454017 -0.229599 -1.454017
v 4.362051 -0.229599 -1.454017
v -1.454017 -0.229599 -1.454017
v -1.454017 -0.229599 4.362051
v 4.362051 -0.229599 4.362051
v 5.816067 0.586471 5.816067
v 5.816067 0.586471 2.908034
v 2.908034 0.586471 2.908034
v 5.816067 0.586471 4.362051
v 4.362051 0.586471 5.816067
v 2.908034 0.586471 4.362051
v 4.362051 0.586471 2.908034
v 4.362051 0.586471 4.362051
v -2.908034 0.801177 -2.908034
v -2.908034 0.801177 -4.362051
v -1.454017 0.801177 -2.908034
v -1.454017 0.801177 -4.362051
vn -0.0000 1.0000 -0.0000
vn -0.0487 0.9244 0.3782
vn -1.0000 -0.0000 -0.0000
vn -0.0000 -1.0000 -0.0000
vn 1.0000 -0.0000 -0.0000
vn -0.0000 -0.0000 -1.0000
vn -0.0810 -0.5130 -0.8546
vn -0.0000 -0.0000 1.0000
vn -0.0027 0.9905 0.1377
vn -0.0000 0.9961 -0.0880
vn -0.0000 0.9967 0.0812
vn 0.0020 0.9941 -0.1087
vn -0.0783 0.9910 -0.1084
vn 0.1376 0.9846 -0.1077
vn -0.1798 0.9671 0.1798
vn -0.1840 0.9771 -0.1068
vn 0.0779 0.9970 -0.0000
vn -0.0312 0.9995 -0.0000
vn -0.0743 0.9939 0.0810
vn -0.1539 0.9848 0.0803
vn -0.0000 0.9972 -0.0745
vn 0.1390 0.9805 0.1390
vn -0.1396 0.9864 -0.0871
vn 0.0877 0.9929 0.0809
vn 0.1830 0.9801 0.0775
vn -0.0068 -1.0000 -0.0000
vn 0.2492 -0.0000 0.9685
vn -0.2302 0.9612 -0.1518
vn -0.0000 0.9293 -0.3693
vn -0.0612 0.9747 -0.2151
vn -0.0000 -0.9878 -0.1560
vn -0.0876 -0.9923 0.0876
vn 0.1798 0.9671 0.1798
vn -0.0000 0.9901 0.1404
vn 0.0313 0.9995 -0.0000
vn -0.0778 0.9970 -0.0000
vn -0.0322 0.9936 -0.1086
vn -0.1395 0.9844 -0.1076
vn 0.0068 1.0000 -0.0000
vn -0.0745 0.9972 -0.0000
vn 0.1539 0.9848 0.0803
vn -0.0624 0.9942 -0.0872
vn 0.0871 0.9867 0.1372
vn 0.0785 0.9938 0.0785
vn -0.0068 -1.0000 -0.0068
vn -0.0877 -0.9929 -0.0809
s 0
usemtl Ground
f 69//7 51//7 106//7
f 63//8 51//8 20//8
f 37//9 53//9 22//9
f 142//10 125//10 178//10
f 36//11 52//11 21//11
f 66//12 54//12 19//12
f 29//12 140//12 112//12
f 22//12 136//12 108//12
f 13//13 58//13 29//13
f 30//11 142//11 114//11
f 19//11 28//11 110//11
f 9//11 56//11 30//11
f 131//10 129//10 177//10
f 132//10 145//10 176//10
f 175//10 28//10 146//10
f 32//9 139//9 111//9
f 20//9 135//9 107//9
f 15//7 41//7 26//7
f 33//14 141//14 113//14
f 21//14 137//14 109//14
f 39//14 55//14 33//14
f 105//7 23//7 55//7
f 104//15 34//15 73//15
f 65//7 74//7 103//7
f 75//7 62//7 102//7
f 77//14 187//14 47//14
f 53//7 78//7 100//7
f 79//16 61//16 99//16
f 80//17 81//17 98//17
f 72//7 82//7 97//7
f 83//7 67//7 96//7
f 84//7 85//7 95//7
f 94//18 43//18 86//18
f 93//7 35//7 63//7
f 88//7 89//7 92//7
f 57//7 90//7 91//7
f 91//7 50//7 88//7
f 74//7 88//7 46//7
f 74//7 57//7 91//7
f 71//19 89//19 43//19
f 62//20 71//20 34//20
f 46//7 92//7 62//7
f 93//21 23//21 59//21
f 43//22 93//22 59//22
f 50//7 93//7 89//7
f 84//23 86//23 49//23
f 45//24 94//24 84//24
f 73//18 71//18 94//18
f 95//7 36//7 64//7
f 61//7 64//7 24//7
f 45//7 95//7 61//7
f 67//9 186//9 96//9
f 52//11 179//11 11//11
f 96//14 184//14 83//14
f 97//25 48//25 80//25
f 66//26 80//26 38//26
f 27//7 97//7 66//7
f 98//17 40//17 68//17
f 54//27 68//27 9//27
f 54//27 80//27 98//27
f 99//16 24//16 56//16
f 81//17 56//17 40//17
f 48//17 99//17 81//17
f 100//7 47//7 76//7
f 70//7 76//7 42//7
f 70//7 53//7 100//7
f 101//7 44//7 72//7
f 58//7 72//7 27//7
f 42//7 101//7 58//7
f 60//28 62//28 34//28
f 77//7 60//7 44//7
f 47//7 102//7 77//7
f 103//7 46//7 75//7
f 78//7 75//7 47//7
f 37//7 103//7 78//7
f 79//29 73//29 45//29
f 48//30 104//30 79//30
f 44//7 104//7 82//7
f 105//7 39//7 83//7
f 49//7 105//7 83//7
f 86//31 59//31 105//31
f 106//7 35//7 87//7
f 90//7 87//7 50//7
f 41//7 106//7 90//7
f 147//10 134//10 174//10
f 148//10 149//10 173//10
f 126//10 150//10 172//10
f 151//10 133//10 171//10
f 152//10 153//10 170//10
f 144//10 154//10 169//10
f 155//10 141//10 168//10
f 156//10 157//10 167//10
f 143//10 158//10 166//10
f 159//10 137//10 165//10
f 160//10 161//10 164//10
f 130//10 162//10 163//10
f 163//10 122//10 160//10
f 146//10 160//10 118//10
f 28//10 163//10 146//10
f 164//10 115//10 143//10
f 134//10 143//10 31//10
f 118//10 164//10 134//10
f 165//10 25//10 131//10
f 161//10 131//10 115//10
f 122//10 165//10 161//10
f 166//10 121//10 156//10
f 145//10 156//10 117//10
f 31//10 166//10 145//10
f 167//10 107//10 135//10
f 133//10 135//10 17//10
f 117//10 167//10 133//10
f 168//10 16//10 123//10
f 157//10 123//10 107//10
f 121//10 168//10 157//10
f 169//10 120//10 152//10
f 136//10 152//10 108//10
f 18//10 169//10 136//10
f 170//10 111//10 139//10
f 124//10 139//10 14//10
f 108//10 170//10 124//10
f 171//10 17//10 127//10
f 153//10 127//10 111//10
f 120//10 171//10 153//10
f 172//10 119//10 148//10
f 140//10 148//10 112//10
f 10//10 172//10 140//10
f 173//10 116//10 144//10
f 128//10 144//10 18//10
f 112//10 173//10 128//10
f 174//10 31//10 132//10
f 149//10 132//10 116//10
f 119//10 174//10 149//10
f 175//10 118//10 147//10
f 150//10 147//10 119//10
f 110//32 175//32 150//32
f 176//10 117//10 151//10
f 154//10 151//10 120//10
f 116//10 176//10 154//10
f 177//10 113//10 155//10
f 158//10 155//10 121//10
f 115//10 177//10 158//10
f 178//10 109//10 159//10
f 162//10 159//10 122//10
f 114//10 178//10 162//10
f 186//7 179//7 182//7
f 185//7 182//7 180//7
f 181//7 186//7 185//7
f 85//12 180//12 36//12
f 11//14 183//14 67//14
f 49//12 185//12 85//12
f 36//11 182//11 52//11
f 83//9 181//9 49//9
f 188//7 189//7 190//7
f 47//9 188//9 76//9
f 101//11 189//11 77//11
f 76//12 190//12 101//12
f 69//7 15//7 51//7
f 20//14 33//14 23//14
f 63//7 35//7 51//7
f 20//14 23//14 63//14
f 51//33 15//33 20//33
f 22//9 32//9 26//9
f 22//9 26//9 65//9
f 53//34 13//34 22//34
f 22//9 65//9 37//9
f 142//10 12//10 125//10
f 21//11 30//11 24//11
f 21//11 24//11 64//11
f 52//11 11//11 21//11
f 21//11 64//11 36//11
f 19//12 29//12 27//12
f 66//12 38//12 54//12
f 19//12 27//12 66//12
f 54//12 9//12 19//12
f 128//12 18//12 29//12
f 29//12 19//12 10//12
f 29//12 10//12 140//12
f 112//12 128//12 29//12
f 124//12 14//12 22//12
f 22//12 29//12 18//12
f 22//12 18//12 136//12
f 108//12 124//12 22//12
f 29//35 22//35 13//35
f 13//36 70//36 42//36
f 58//12 27//12 29//12
f 13//37 42//37 58//37
f 130//11 28//11 30//11
f 30//11 21//11 12//11
f 30//11 12//11 142//11
f 114//11 130//11 30//11
f 126//11 10//11 19//11
f 19//11 30//11 28//11
f 28//11 138//11 110//11
f 110//11 126//11 19//11
f 30//11 19//11 9//11
f 9//11 68//11 40//11
f 56//11 24//11 30//11
f 9//11 40//11 56//11
f 131//10 25//10 129//10
f 132//10 31//10 145//10
f 175//38 138//38 28//38
f 127//9 17//9 32//9
f 32//9 22//9 14//9
f 32//9 14//9 139//9
f 111//9 127//9 32//9
f 123//9 16//9 20//9
f 20//9 32//9 17//9
f 20//9 17//9 135//9
f 107//9 123//9 20//9
f 32//9 20//9 15//9
f 15//7 69//7 41//7
f 41//7 57//7 26//7
f 26//9 32//9 15//9
f 129//14 25//14 33//14
f 33//14 20//14 16//14
f 33//14 16//14 141//14
f 113//14 129//14 33//14
f 125//14 12//14 21//14
f 21//14 33//14 25//14
f 21//14 25//14 137//14
f 109//14 125//14 21//14
f 33//14 21//14 11//14
f 33//14 11//14 67//14
f 55//14 23//14 33//14
f 33//14 67//14 39//14
f 105//39 59//39 23//39
f 104//40 60//40 34//40
f 65//7 26//7 74//7
f 75//7 46//7 62//7
f 77//14 189//14 187//14
f 53//7 37//7 78//7
f 79//16 45//16 61//16
f 80//17 48//17 81//17
f 72//7 44//7 82//7
f 83//7 39//7 67//7
f 84//7 49//7 85//7
f 94//18 71//18 43//18
f 93//7 87//7 35//7
f 88//7 50//7 89//7
f 57//7 41//7 90//7
f 91//7 90//7 50//7
f 74//7 91//7 88//7
f 74//7 26//7 57//7
f 71//41 92//41 89//41
f 62//41 92//41 71//41
f 46//7 88//7 92//7
f 93//7 63//7 23//7
f 43//42 89//42 93//42
f 50//7 87//7 93//7
f 84//43 94//43 86//43
f 45//44 73//44 94//44
f 73//18 34//18 71//18
f 95//7 85//7 36//7
f 61//7 95//7 64//7
f 45//7 84//7 95//7
f 67//9 183//9 186//9
f 52//11 182//11 179//11
f 96//14 186//14 184//14
f 97//45 82//45 48//45
f 66//46 97//46 80//46
f 27//7 72//7 97//7
f 98//17 81//17 40//17
f 54//27 98//27 68//27
f 54//47 38//47 80//47
f 99//16 61//16 24//16
f 81//17 99//17 56//17
f 48//17 79//17 99//17
f 100//7 78//7 47//7
f 70//7 100//7 76//7
f 70//48 13//48 53//48
f 101//7 77//7 44//7
f 58//7 101//7 72//7
f 42//7 76//7 101//7
f 60//7 102//7 62//7
f 77//7 102//7 60//7
f 47//7 75//7 102//7
f 103//7 74//7 46//7
f 78//7 103//7 75//7
f 37//7 65//7 103//7
f 79//49 104//49 73//49
f 48//45 82//45 104//45
f 44//7 60//7 104//7
f 105//7 55//7 39//7
f 49//50 86//50 105//50
f 86//18 43//18 59//18
f 106//7 51//7 35//7
f 90//7 106//7 87//7
f 41//7 69//7 106//7
f 147//10 118//10 134//10
f 148//10 119//10 149//10
f 126//51 110//51 150//51
f 151//10 117//10 133//10
f 152//10 120//10 153//10
f 144//10 116//10 154//10
f 155//10 113//10 141//10
f 156//10 121//10 157//10
f 143//10 115//10 158//10
f 159//10 109//10 137//10
f 160//10 122//10 161//10
f 130//10 114//10 162//10
f 163//10 162//10 122//10
f 146//10 163//10 160//10
f 28//10 130//10 163//10
f 164//10 161//10 115//10
f 134//10 164//10 143//10
f 118//10 160//10 164//10
f 165//10 137//10 25//10
f 161//10 165//10 131//10
f 122//10 159//10 165//10
f 166//10 158//10 121//10
f 145//10 166//10 156//10
f 31//10 143//10 166//10
f 167//10 157//10 107//10
f 133//10 167//10 135//10
f 117//10 156//10 167//10
f 168//10 141//10 16//10
f 157//10 168//10 123//10
f 121//10 155//10 168//10
f 169//10 154//10 120//10
f 136//10 169//10 152//10
f 18//10 144//10 169//10
f 170//10 153//10 111//10
f 124//10 170//10 139//10
f 108//10 152//10 170//10
f 171//10 133//10 17//10
f 153//10 171//10 127//10
f 120//10 151//10 171//10
f 172//10 150//10 119//10
f 140//10 172//10 148//10
f 10//10 126//10 172//10
f 173//10 149//10 116//10
f 128//10 173//10 144//10
f 112//10 148//10 173//10
f 174//10 134//10 31//10
f 149//10 174//10 132//10
f 119//10 147//10 174//10
f 175//10 146//10 118//10
f 150//10 175//10 147//10
f 110//52 138//52 175//52
f 176//10 145//10 117//10
f 154//10 176//10 151//10
f 116//10 132//10 176//10
f 177//10 129//10 113//10
f 158//10 177//10 155//10
f 115//10 131//10 177//10
f 178//10 125//10 109//10
f 162//10 178//10 159//10
f 114//10 142//10 178//10
f 186//7 183//7 179//7
f 185//7 186//7 182//7
f 181//7 184//7 186//7
f 85//12 185//12 180//12
f 11//14 179//14 183//14
f 49//12 181//12 185//12
f 36//11 180//11 182//11
f 83//9 184//9 181//9
f 188//7 187//7 189//7
f 47//9 187//9 188//9
f 101//11 190//11 189//11
f 76//12 188//12 190//12
